GIL11_free1_ik
nRows=3
nColumns=375

# SIMM Motion File Header:
name GIL11_free1_ik
datacolumns 375
datarows 3
otherdata 1
range 0.60833000 0.62500000
endheader
time	pelvis_tx	pelvis_ty	pelvis_tz	pelvis_tilt	pelvis_list	pelvis_rotation	hip_flexion_r	hip_adduction_r	hip_rotation_r	knee_angle_r	ankle_angle_r	hip_flexion_l	hip_adduction_l	hip_rotation_l	knee_angle_l	ankle_angle_l	lumbar_extension	lumbar_bending	lumbar_rotation	subtalar_angle_r	mtp_angle_r	subtalar_angle_l	mtp_angle_l	asis_r_px	asis_r_py	asis_r_pz	asis_l_px	asis_l_py	asis_l_pz	midasis_px	midasis_py	midasis_pz	psis_r_px	psis_r_py	psis_r_pz	psis_l_px	psis_l_py	psis_l_pz	hip_r_px	hip_r_py	hip_r_pz	hip_l_px	hip_l_py	hip_l_pz	midhip_px	midhip_py	midhip_pz	epicondLat_r_px	epicondLat_r_py	epicondLat_r_pz	epicondMed_r_px	epicondMed_r_py	epicondMed_r_pz	thighwand_r_px	thighwand_r_py	thighwand_r_pz	upperleg1_r_px	upperleg1_r_py	upperleg1_r_pz	upperleg2_r_px	upperleg2_r_py	upperleg2_r_pz	malleolusLat_r_px	malleolusLat_r_py	malleolusLat_r_pz	malleolusMedv_r_px	malleolusMedv_r_py	malleolusMedv_r_pz	shankwand_r_px	shankwand_r_py	shankwand_r_pz	lowerleg1_r_px	lowerleg1_r_py	lowerleg1_r_pz	knee_r_px	knee_r_py	knee_r_pz	ankle_r_px	ankle_r_py	ankle_r_pz	toe_r_px	toe_r_py	toe_r_pz	epicondLat_l_px	epicondLat_l_py	epicondLat_l_pz	epicondMed_l_px	epicondMed_l_py	epicondMed_l_pz	thighwand_l_px	thighwand_l_py	thighwand_l_pz	upperleg1_l_px	upperleg1_l_py	upperleg1_l_pz	upperleg2_l_px	upperleg2_l_py	upperleg2_l_pz	malleolusLat_l_px	malleolusLat_l_py	malleolusLat_l_pz	malleolusMedv_l_px	malleolusMedv_l_py	malleolusMedv_l_pz	shankwand_l_px	shankwand_l_py	shankwand_l_pz	lowerleg1_l_px	lowerleg1_l_py	lowerleg1_l_pz	knee_l_px	knee_l_py	knee_l_pz	ankle_l_px	ankle_l_py	ankle_l_pz	toe_l_px	toe_l_py	toe_l_pz	subclavicle_r_px	subclavicle_r_py	subclavicle_r_pz	subclavicle_l_px	subclavicle_l_py	subclavicle_l_pz	neck_px	neck_py	neck_pz	sternalnotch_px	sternalnotch_py	sternalnotch_pz	xyphoidprocess_px	xyphoidprocess_py	xyphoidprocess_pz	midhip_tx	midhip_ty	midhip_tz	hip_r_tx	hip_r_ty	hip_r_tz	hip_l_tx	hip_l_ty	hip_l_tz	knee_r_tx	knee_r_ty	knee_r_tz	knee_l_tx	knee_l_ty	knee_l_tz	ankle_r_tx	ankle_r_ty	ankle_r_tz	ankle_l_tx	ankle_l_ty	ankle_l_tz	midasis_tx	midasis_ty	midasis_tz	asis_r_tx	asis_r_ty	asis_r_tz	asis_l_tx	asis_l_ty	asis_l_tz	psis_r_tx	psis_r_ty	psis_r_tz	psis_l_tx	psis_l_ty	psis_l_tz	epicondLat_r_tx	epicondLat_r_ty	epicondLat_r_tz	epicondLat_l_tx	epicondLat_l_ty	epicondLat_l_tz	epicondMed_r_tx	epicondMed_r_ty	epicondMed_r_tz	epicondMed_l_tx	epicondMed_l_ty	epicondMed_l_tz	malleolusLat_r_tx	malleolusLat_r_ty	malleolusLat_r_tz	malleolusLat_l_tx	malleolusLat_l_ty	malleolusLat_l_tz	malleolusMedv_r_tx	malleolusMedv_r_ty	malleolusMedv_r_tz	malleolusMedv_l_tx	malleolusMedv_l_ty	malleolusMedv_l_tz	neck_tx	neck_ty	neck_tz	subclavicle_r_tx	subclavicle_r_ty	subclavicle_r_tz	subclavicle_l_tx	subclavicle_l_ty	subclavicle_l_tz	sternalnotch_tx	sternalnotch_ty	sternalnotch_tz	xyphoidprocess_tx	xyphoidprocess_ty	xyphoidprocess_tz	thighwand_r_tx	thighwand_r_ty	thighwand_r_tz	thighwand_l_tx	thighwand_l_ty	thighwand_l_tz	upperleg1_r_tx	upperleg1_r_ty	upperleg1_r_tz	upperleg1_l_tx	upperleg1_l_ty	upperleg1_l_tz	upperleg2_r_tx	upperleg2_r_ty	upperleg2_r_tz	upperleg2_l_tx	upperleg2_l_ty	upperleg2_l_tz	shankwand_r_tx	shankwand_r_ty	shankwand_r_tz	shankwand_l_tx	shankwand_l_ty	shankwand_l_tz	lowerleg1_r_tx	lowerleg1_r_ty	lowerleg1_r_tz	lowerleg1_l_tx	lowerleg1_l_ty	lowerleg1_l_tz	toe_r_tx	toe_r_ty	toe_r_tz	toe_l_tx	toe_l_ty	toe_l_tz	ground_force_vx	ground_force_vy	ground_force_vz	ground_force_px	ground_force_py	ground_force_pz	ground_force_vx	ground_force_vy	ground_force_vz	ground_force_px	ground_force_py	ground_force_pz	ground_torque_x	ground_torque_y	ground_torque_z	ground_torque_x	ground_torque_y	ground_torque_z	ground_marker_px	ground_marker_py	ground_marker_pz	ground_marker_px	ground_marker_py	ground_marker_pz	ground_marker_px	ground_marker_py	ground_marker_pz	ground_marker_px	ground_marker_py	ground_marker_pz	ground_marker_px	ground_marker_py	ground_marker_pz	ground_marker_px	ground_marker_py	ground_marker_pz	ground_marker_px	ground_marker_py	ground_marker_pz	ground_marker_px	ground_marker_py	ground_marker_pz	ground_marker_px	ground_marker_py	ground_marker_pz	ground_marker_px	ground_marker_py	ground_marker_pz	ground_marker_px	ground_marker_py	ground_marker_pz	ground_marker_px	ground_marker_py	ground_marker_pz	ground_marker_px	ground_marker_py	ground_marker_pz	ground_marker_px	ground_marker_py	ground_marker_pz	ground_marker_px	ground_marker_py	ground_marker_pz	ground_marker_px	ground_marker_py	ground_marker_pz	ground_marker_px	ground_marker_py	ground_marker_pz	ground_marker_px	ground_marker_py	ground_marker_pz	ground_marker_px	ground_marker_py	ground_marker_pz	ground_marker_px	ground_marker_py	ground_marker_pz	ground_marker_px	ground_marker_py	ground_marker_pz	ground_marker_px	ground_marker_py	ground_marker_pz	ground_marker_px	ground_marker_py	ground_marker_pz	ground_marker_px	ground_marker_py	ground_marker_pz	ground_marker_px	ground_marker_py	ground_marker_pz	ground_marker_px	ground_marker_py	ground_marker_pz	ground_marker_px	ground_marker_py	ground_marker_pz	ground_marker_px	ground_marker_py	ground_marker_pz	ground_marker_px	ground_marker_py	ground_marker_pz	ground_marker_px	ground_marker_py	ground_marker_pz	ground_marker_px	ground_marker_py	ground_marker_pz	ground_marker_px	ground_marker_py	ground_marker_pz	ground_marker_px	ground_marker_py	ground_marker_pz	ground_marker_px	ground_marker_py	ground_marker_pz	ground_marker_px	ground_marker_py	ground_marker_pz	ground_marker_px	ground_marker_py	ground_marker_pz	ground_marker_px	ground_marker_py	ground_marker_pz
      0.60833000	      1.14682325	      0.84382705	     -0.30046124	     -4.26233131	     -2.75219839	     11.47620874	     28.97502570	     -0.92936167	      7.72928108	    -15.81248900	     -6.39227521	     -6.29589275	     -5.36157755	     15.95197986	    -28.97956645	     -0.29548848	     -5.16363453	      2.82134362	     -4.89633887	      0.00000000	      0.00000000	      0.00000000	      0.00000000	      1.21608978	      0.83329543	     -0.20121527	      1.16704738	      0.82920627	     -0.43124692	      1.15938668	      0.84276747	     -0.30301784	      1.01510122	      0.91650835	     -0.24643998	      1.00041089	      0.91180581	     -0.29892780	      1.09436087	      0.79114235	     -0.20952628	      1.06337673	      0.78621042	     -0.35974148	      1.07886880	      0.78867638	     -0.28463388	      1.29294982	      0.44872582	     -0.17373622	      1.25687450	      0.43635838	     -0.28441924	      1.34960111	      0.62832704	     -0.28990605	      1.28697610	      0.65512478	     -0.21716966	      1.31166132	      0.57069791	     -0.21392644	      1.30861152	      0.06627022	     -0.15257487	      1.31890207	      0.06708486	     -0.22725898	      1.30549537	      0.14877052	     -0.09087532	      1.29820327	      0.15399785	     -0.13425603	      1.24868232	      0.44535763	     -0.22347750	      1.30932159	      0.07779631	     -0.20400586	      1.42169624	      0.04069977	     -0.16829805	      1.01855195	      0.39323496	     -0.43612439	      1.00878448	      0.40193047	     -0.31291541	      1.08400309	      0.51542226	     -0.51419563	      1.03049162	      0.57722255	     -0.45961355	      1.01882539	      0.49054786	     -0.44807337	      0.72892931	      0.12805342	     -0.44200513	      0.74454858	      0.12129309	     -0.37341156	      0.88675601	      0.14780113	     -0.38283725	      0.85533544	      0.17435689	     -0.39241583	      0.98822671	      0.41327168	     -0.36815987	      0.74688450	      0.12971998	     -0.39074218	      0.79900861	      0.02986014	     -0.42826594	      1.18597615	      1.29301232	     -0.24595166	      1.17619142	      1.28888639	     -0.35131997	      1.05489049	      1.34062016	     -0.28437784	      1.17794673	      1.28738596	     -0.29766726	      1.22399458	      1.22205801	     -0.30323608	      1.08671700	      0.79369800	     -0.27914400	      1.08775500	      0.77736100	     -0.21045400	      1.05408500	      0.77719000	     -0.35880900	      1.24830500	      0.43306100	     -0.22562000	      0.98017900	      0.40200200	     -0.38833000	      1.30337400	      0.06698700	     -0.23570200	      0.74487200	      0.12850900	     -0.36123700	      1.15938100	      0.85164500	     -0.30167700	      1.18166700	      0.85164900	     -0.18599700	      1.13709500	      0.85164000	     -0.41735600	      0.97585500	      0.91018800	     -0.22542400	      0.96278400	      0.90625100	     -0.27808100	      1.26531000	      0.43856000	     -0.17044200	      0.98648500	      0.40528900	     -0.44589200	      1.23817400	      0.42999100	     -0.27209400	      1.01373900	      0.40513800	     -0.32556400	      1.29380400	      0.06448000	     -0.19694400	      0.72969700	      0.13802200	     -0.39700300	      1.31446700	      0.07376800	     -0.26932100	      0.75780100	      0.13395500	     -0.33743600	      1.05645000	      1.35138700	     -0.28444900	      1.18601600	      1.29168000	     -0.24552900	      1.17722200	      1.28847300	     -0.35157600	      1.17818700	      1.28701700	     -0.29775900	      1.21889300	      1.21794900	     -0.30276500	      1.32275100	      0.62489900	     -0.27256100	      1.05140500	      0.54324300	     -0.52249100	      1.26331900	      0.64600800	     -0.19467900	      0.99973600	      0.59210900	     -0.45786800	      1.29178900	      0.56282400	     -0.19785200	      0.99832400	      0.50440400	     -0.45274000	      1.28248600	      0.13966700	     -0.12625300	      0.89726000	      0.16396200	     -0.37443000	      1.28216800	      0.14834000	     -0.16972600	      0.86063500	      0.19024800	     -0.37629900	      1.40498400	      0.04420400	     -0.21026400	      0.80718100	      0.04534400	     -0.38012500	    -92.18953873	    464.46301180	      8.56841922	      1.30047827	      0.00000000	     -0.22994637	     94.95716708	    259.99419968	    -12.43193914	      0.81968329	      0.00000000	     -0.36326834	      0.00000000	      0.13595178	      0.00000000	      0.00000000	     -1.03152344	      0.00000000	      1.08671749	      0.79369843	     -0.27914408	      1.08775473	      0.77736098	     -0.21045431	      1.05408502	      0.77719003	     -0.35880902	      1.24830461	      0.43306065	     -0.22561979	      0.98017871	      0.40200192	     -0.38832960	      1.30337381	      0.06698698	     -0.23570155	      0.74487233	      0.12850925	     -0.36123708	      1.15938127	      0.85164464	     -0.30167660	      1.18166709	      0.85164887	     -0.18599689	      1.13709545	      0.85164034	     -0.41735631	      0.97585499	      0.91018790	     -0.22542399	      0.96278417	      0.90625066	     -0.27808094	      1.26530957	      0.43855977	     -0.17044201	      0.98648500	      0.40528882	     -0.44589198	      1.23817444	      0.42999116	     -0.27209377	      1.01373947	      0.40513828	     -0.32556441	      1.29380405	      0.06448001	     -0.19694415	      0.72969735	      0.13802236	     -0.39700329	      1.31446660	      0.07376823	     -0.26932055	      0.75780100	      0.13395508	     -0.33743575	      1.05645013	      1.35138726	     -0.28444889	      1.18601561	      1.29168010	     -0.24552926	      1.17722189	      1.28847313	     -0.35157597	      1.17818701	      1.28701675	     -0.29775941	      1.21889305	      1.21794903	     -0.30276510	      1.32275081	      0.62489873	     -0.27256140	      1.05140519	      0.54324317	     -0.52249128	      1.26331902	      0.64600778	     -0.19467913	      0.99973595	      0.59210920	     -0.45786753	      1.29178929	      0.56282359	     -0.19785151	      0.99832356	      0.50440437	     -0.45273980	      1.28248620	      0.13966742	     -0.12625302	      0.89726025	      0.16396222	     -0.37443009	      1.28216839	      0.14834028	     -0.16972606	      0.86063498	      0.19024837	     -0.37629852	      1.40498447	      0.04420371	     -0.21026362	      0.80718112	      0.04534354	     -0.38012493
      0.61667000	      1.15840292	      0.84525171	     -0.29811680	     -4.08115765	     -2.91641991	     11.35979499	     28.73736878	     -0.51336061	      7.05348248	    -17.16358359	     -5.55321574	     -5.74446937	     -6.01304697	     15.93711070	    -30.84499686	     -4.16221158	     -5.26994673	      2.90604956	     -4.78609100	      0.00000000	      0.00000000	      0.00000000	      0.00000000	      1.22752263	      0.83524443	     -0.19871435	      1.17891264	      0.83030433	     -0.42882106	      1.17097436	      0.84422548	     -0.30064745	      1.02634654	      0.91766443	     -0.24455307	      1.01176718	      0.91275633	     -0.29705301	      1.10594711	      0.79266932	     -0.20711885	      1.07525270	      0.78718513	     -0.35737437	      1.09059991	      0.78992723	     -0.28224661	      1.30326603	      0.44945382	     -0.17196295	      1.26823736	      0.43801037	     -0.28308070	      1.36152364	      0.62976033	     -0.28623022	      1.29826491	      0.65618633	     -0.21390739	      1.32269257	      0.57167044	     -0.21105603	      1.30934675	      0.06609806	     -0.15075893	      1.32055235	      0.06665771	     -0.22531358	      1.30755223	      0.14864833	     -0.08907363	      1.30091562	      0.15405788	     -0.13253715	      1.25977244	      0.44656799	     -0.22225000	      1.31096359	      0.07760457	     -0.20217378	      1.42244436	      0.03916822	     -0.16510697	      1.03482013	      0.39454064	     -0.43780344	      1.02455676	      0.40190614	     -0.31454808	      1.09923710	      0.51817946	     -0.51443633	      1.04489869	      0.57886815	     -0.45942564	      1.03410802	      0.49196519	     -0.44878547	      0.73902696	      0.13475196	     -0.44798509	      0.75427871	      0.12677297	     -0.37943977	      0.89706128	      0.15027470	     -0.38811628	      0.86625983	      0.17763357	     -0.39744220	      1.00427224	      0.41324657	     -0.36973285	      0.75685303	      0.13536784	     -0.39665373	      0.80015606	      0.03147706	     -0.43444922	      1.19683866	      1.29440702	     -0.24457427	      1.18708356	      1.29009922	     -0.34993804	      1.06570858	      1.34180477	     -0.28310844	      1.18882784	      1.28868777	     -0.29628256	      1.23495056	      1.22340280	     -0.30173460	      1.09916000	      0.79572800	     -0.27748800	      1.09903600	      0.77856300	     -0.20843400	      1.06573200	      0.77783000	     -0.35686900	      1.25905100	      0.43395500	     -0.22414100	      0.99574500	      0.40150000	     -0.39121200	      1.30453000	      0.06666200	     -0.23569600	      0.75521500	      0.13411500	     -0.36392400	      1.17063400	      0.85281500	     -0.29970400	      1.19259500	      0.85324300	     -0.18418100	      1.14867300	      0.85238700	     -0.41522800	      0.98677500	      0.91106300	     -0.22437200	      0.97363100	      0.90671500	     -0.27711400	      1.27550400	      0.43907000	     -0.16875900	      1.00232100	      0.40552300	     -0.44869800	      1.25042200	      0.43185400	     -0.26814100	      1.03154900	      0.40340000	     -0.32928000	      1.29514300	      0.06427800	     -0.19688600	      0.73954400	      0.14461200	     -0.39919700	      1.31690500	      0.07284100	     -0.26900400	      0.76855000	      0.13928800	     -0.34037000	      1.06745900	      1.35252100	     -0.28324400	      1.19668600	      1.29283500	     -0.24403900	      1.18812700	      1.28967700	     -0.35018900	      1.18882600	      1.28809600	     -0.29631600	      1.22965300	      1.21911100	     -0.30127300	      1.33410600	      0.62652400	     -0.26908700	      1.06634100	      0.54451500	     -0.52414500	      1.27520100	      0.64773700	     -0.19110400	      1.01443200	      0.59174200	     -0.45893200	      1.30377500	      0.56530500	     -0.19431500	      1.01434700	      0.50439200	     -0.45504000	      1.28630100	      0.13892400	     -0.12595400	      0.90806500	      0.16549800	     -0.37969100	      1.28690100	      0.14777700	     -0.16931800	      0.87276400	      0.19282300	     -0.38154500	      1.40622500	      0.04253200	     -0.21004500	      0.81023300	      0.04591600	     -0.38048600	   -107.53795518	    516.03291616	      1.33637001	      1.30676892	      0.00000000	     -0.22868480	     69.28487887	    177.91573649	    -12.63734140	      0.82149249	      0.00000000	     -0.36201013	      0.00000000	      0.54315051	      0.00000000	      0.00000000	     -0.67377484	      0.00000000	      1.09915960	      0.79572773	     -0.27748847	      1.09903634	      0.77856284	     -0.20843393	      1.06573212	      0.77783048	     -0.35686946	      1.25905120	      0.43395483	     -0.22414097	      0.99574536	      0.40150014	     -0.39121220	      1.30452991	      0.06666157	     -0.23569617	      0.75521475	      0.13411498	     -0.36392352	      1.17063403	      0.85281503	     -0.29970440	      1.19259524	      0.85324281	     -0.18418072	      1.14867270	      0.85238731	     -0.41522810	      0.98677492	      0.91106313	     -0.22437209	      0.97363108	      0.90671492	     -0.27711439	      1.27550387	      0.43907019	     -0.16875920	      1.00232100	      0.40552318	     -0.44869763	      1.25042152	      0.43185392	     -0.26814088	      1.03154862	      0.40340027	     -0.32928020	      1.29514253	      0.06427824	     -0.19688642	      0.73954403	      0.14461187	     -0.39919740	      1.31690526	      0.07284102	     -0.26900429	      0.76855040	      0.13928786	     -0.34037009	      1.06745946	      1.35252059	     -0.28324419	      1.19668603	      1.29283488	     -0.24403921	      1.18812680	      1.28967690	     -0.35018912	      1.18882573	      1.28809619	     -0.29631627	      1.22965264	      1.21911061	     -0.30127326	      1.33410645	      0.62652391	     -0.26908669	      1.06634104	      0.54451507	     -0.52414513	      1.27520072	      0.64773726	     -0.19110373	      1.01443183	      0.59174204	     -0.45893180	      1.30377507	      0.56530458	     -0.19431540	      1.01434696	      0.50439161	     -0.45503971	      1.28630066	      0.13892354	     -0.12595397	      0.90806472	      0.16549850	     -0.37969083	      1.28690064	      0.14777727	     -0.16931753	      0.87276429	      0.19282265	     -0.38154486	      1.40622497	      0.04253154	     -0.21004452	      0.81023294	      0.04591629	     -0.38048580
      0.62500000	      1.16966514	      0.84663205	     -0.29590780	     -3.86680949	     -3.05165543	     11.20843680	     28.39258234	     -0.13648399	      6.22102356	    -18.39650236	     -4.57675035	     -5.10309398	     -6.61095895	     15.75574911	    -32.78074601	     -8.43252095	     -5.42775044	      2.99769165	     -4.57504785	      0.00000000	      0.00000000	      0.00000000	      0.00000000	      1.23857708	      0.83714494	     -0.19631027	      1.19055583	      0.83143342	     -0.42652273	      1.18224669	      0.84564822	     -0.29840487	      1.03719706	      0.91866705	     -0.24285379	      1.02276672	      0.91356945	     -0.29537684	      1.11718863	      0.79407708	     -0.20490596	      1.08688739	      0.78809326	     -0.35522221	      1.10203801	      0.79108517	     -0.28006408	      1.31269491	      0.44980907	     -0.16991444	      1.27910081	      0.43939757	     -0.28157531	      1.37316133	      0.63079449	     -0.28193893	      1.30905050	      0.65688998	     -0.21024919	      1.33311120	      0.57225754	     -0.20775768	      1.30933452	      0.06581568	     -0.14933653	      1.32168265	      0.06621045	     -0.22371154	      1.30861327	      0.14829534	     -0.08753500	      1.30277196	      0.15392830	     -0.13108422	      1.27013340	      0.44748468	     -0.22087672	      1.31201262	      0.07735415	     -0.20069987	      1.42255200	      0.03785103	     -0.16197244	      1.05161051	      0.39581110	     -0.43974190	      1.04117018	      0.40176593	     -0.31642520	      1.11446765	      0.52106250	     -0.51503980	      1.05930907	      0.58046793	     -0.45944769	      1.04964069	      0.49332671	     -0.44971589	      0.75005487	      0.14117547	     -0.45344604	      0.76512839	      0.13196382	     -0.38501597	      0.90836717	      0.15262595	     -0.39339459	      0.87813873	      0.18073785	     -0.40234847	      1.02098375	      0.41305700	     -0.37149668	      0.76788223	      0.14073397	     -0.40211333	      0.80127854	      0.03342060	     -0.44039481	      1.20748303	      1.29562757	     -0.24321518	      1.19764875	      1.29121580	     -0.34856729	      1.07628458	      1.34288448	     -0.28168955	      1.19943626	      1.28985469	     -0.29491193	      1.24560732	      1.22460195	     -0.30034067	      1.11049800	      0.79689200	     -0.27621400	      1.11021300	      0.77988600	     -0.20641400	      1.07732500	      0.77863600	     -0.35493900	      1.26916600	      0.43466400	     -0.22250000	      1.01204400	      0.40113800	     -0.39383500	      1.30533500	      0.06643400	     -0.23559600	      0.76681800	      0.13953600	     -0.36671800	      1.18178900	      0.85416000	     -0.29768300	      1.20339100	      0.85497500	     -0.18229200	      1.16018700	      0.85334600	     -0.41307500	      0.99756700	      0.91201600	     -0.22353400	      0.98433300	      0.90727300	     -0.27635600	      1.28490400	      0.43931800	     -0.16687000	      1.01869900	      0.40590400	     -0.45125400	      1.26038700	      0.43338600	     -0.26668800	      1.05040800	      0.40103300	     -0.33413200	      1.29606900	      0.06414300	     -0.19675200	      0.75071800	      0.15102300	     -0.40148700	      1.31737700	      0.07197500	     -0.26912300	      0.78058700	      0.14442500	     -0.34311500	      1.07787300	      1.35377900	     -0.28183100	      1.20768300	      1.29432600	     -0.24276300	      1.19881900	      1.29076700	     -0.34911000	      1.19941700	      1.28928200	     -0.29488500	      1.24063200	      1.22046300	     -0.29994300	      1.34543100	      0.62773100	     -0.26507000	      1.08123400	      0.54590000	     -0.52572700	      1.28614100	      0.64832500	     -0.18772300	      1.02891900	      0.59142000	     -0.45996100	      1.31392000	      0.56593400	     -0.19116800	      1.03066200	      0.50419800	     -0.45780800	      1.28948700	      0.13814200	     -0.12549800	      0.91984800	      0.16712800	     -0.38488700	      1.28995700	      0.14708900	     -0.16922100	      0.88580600	      0.19500900	     -0.38658100	      1.40713300	      0.04127500	     -0.20962700	      0.81391200	      0.04678400	     -0.38074100	   -119.16658092	    566.90547059	     -6.37575953	      1.31157715	      0.00000000	     -0.22754065	     42.02895491	    109.17259745	     -9.53861495	      0.82544238	      0.00000000	     -0.36096838	      0.00000000	      0.89679980	      0.00000000	      0.00000000	     -0.37746246	      0.00000000	      1.11049795	      0.79689229	     -0.27621445	      1.11021256	      0.77988589	     -0.20641449	      1.07732499	      0.77863598	     -0.35493943	      1.26916647	      0.43466422	     -0.22249950	      1.01204395	      0.40113834	     -0.39383495	      1.30533481	      0.06643438	     -0.23559615	      0.76681751	      0.13953578	     -0.36671841	      1.18178904	      0.85416019	     -0.29768348	      1.20339096	      0.85497469	     -0.18229158	      1.16018713	      0.85334569	     -0.41307536	      0.99756676	      0.91201633	     -0.22353357	      0.98433292	      0.90727258	     -0.27635568	      1.28490400	      0.43931842	     -0.16686974	      1.01869917	      0.40590370	     -0.45125446	      1.26038730	      0.43338624	     -0.26668754	      1.05040801	      0.40103281	     -0.33413169	      1.29606903	      0.06414269	     -0.19675171	      0.75071830	      0.15102319	     -0.40148702	      1.31737709	      0.07197471	     -0.26912314	      0.78058743	      0.14442483	     -0.34311488	      1.07787311	      1.35377932	     -0.28183061	      1.20768261	      1.29432595	     -0.24276263	      1.19881880	      1.29076684	     -0.34911019	      1.19941688	      1.28928244	     -0.29488465	      1.24063241	      1.22046268	     -0.29994294	      1.34543061	      0.62773144	     -0.26507035	      1.08123362	      0.54590040	     -0.52572715	      1.28614104	      0.64832461	     -0.18772250	      1.02891886	      0.59141982	     -0.45996067	      1.31392038	      0.56593388	     -0.19116774	      1.03066182	      0.50419796	     -0.45780823	      1.28948748	      0.13814238	     -0.12549841	      0.91984791	      0.16712765	     -0.38488743	      1.28995705	      0.14708854	     -0.16922066	      0.88580579	      0.19500878	     -0.38658082	      1.40713298	      0.04127535	     -0.20962743	      0.81391245	      0.04678365	     -0.38074112
